<?xml version="1.0" encoding="UTF-8"?>
<svg width="221px" height="221px" viewBox="0 0 221 221" version="1.1" xmlns="http://www.w3.org/2000/svg" xmlns:xlink="http://www.w3.org/1999/xlink">
    <!-- Generator: Sketch 48.1 (47250) - http://www.bohemiancoding.com/sketch -->
    <title>icon_incoming_call@1x</title>
    <desc>Created with Sketch.</desc>
    <defs></defs>
    <g id="Symbols" stroke="none" stroke-width="1" fill="none" fill-rule="evenodd">
        <g id="icon_incoming_call">
            <g id="Group-3">
                <g id="Group">
                    <circle id="Oval" fill="#89A5F3" cx="110.5" cy="110.5" r="110.5"></circle>
                    <circle id="Oval" fill="#BDCBFA" cx="110.5" cy="110.5" r="78.4591078"></circle>
                </g>
                <g id="Group-2" transform="translate(61.000000, 63.000000)" fill="#FFFFFF" fill-rule="nonzero">
                    <g id="incoming-call-(1)">
                        <path d="M92.1431903,77.6643659 L77.3097041,62.7720433 C76.1539856,61.6156463 74.5435269,60.9792875 72.7777779,60.9792875 C70.919452,60.9792875 69.123025,61.7071774 67.8546395,62.9782606 L59.8389969,71.0245497 L57.6725336,69.8191182 C52.9041425,67.1677138 46.3789615,63.5309884 39.4832013,56.6051377 C32.5621928,49.6659386 28.9364889,43.0999466 26.2832501,38.3005587 L25.0979395,36.1871718 L33.1309572,28.1302585 C35.7890828,25.4548817 35.8786734,21.2003216 33.3313144,18.6393586 L18.4953848,3.75466362 C17.3404807,2.59881149 15.7330084,1.95918367 13.9683454,1.95918367 C12.107576,1.95918367 10.3144069,2.68979773 9.04602137,3.96387749 L5.40321385,7.64282708 L5.06086921,8.2039997 C3.70696542,9.94935549 2.59685661,11.9104631 1.76393565,14.0478225 C0.994271069,16.0849335 0.511839338,18.0209791 0.293292605,19.9627453 C-1.61960215,35.914213 5.71216562,50.5594562 25.5991038,70.512684 C49.1736448,94.1614787 68.8702709,96 74.3461561,96 C75.2833279,96 75.8491061,95.949331 76.0106406,95.9329862 C78.0334875,95.6861792 79.9705445,95.2001928 81.9233478,94.4379788 C84.0327989,93.6136543 85.9807154,92.5076539 87.713886,91.1450396 L88.5438206,90.4907015 L91.9526067,87.1342899 C94.6063884,84.4725338 94.6913637,80.2228771 92.1431903,77.6643659 Z" id="Shape"></path>
                        <path d="M53.0335606,43.1020408 C55.6449446,43.0979383 76.4785548,40.1334541 77.2595421,40.0153014 C77.5074617,40.0153014 78.7904929,39.9857632 79.4433389,39.3197868 C79.8533909,38.9043378 80.3260298,37.9864663 78.884643,36.5246001 L73.7171782,31.2873174 L92.1873241,12.5664043 C92.6378418,12.1091096 93.1709094,10.9264885 91.9701584,9.71296178 L83.3051117,0.928909914 C82.7040618,0.320368787 82.1032816,0.00748292165 81.5103248,9.83776315e-05 C81.0584582,-0.00482465172 80.6260152,0.175139421 80.2906898,0.513460938 C80.2113771,0.599613951 80.1498693,0.675100401 80.1058966,0.73362975 L61.4509575,19.6449 L55.8151701,13.9336389 C54.5887908,12.6913945 53.7789381,13.2405858 53.4905528,13.5387026 C52.8506558,14.1858074 52.8377068,15.53335 52.8506558,15.8369368 L50.5716299,40.3167002 C50.5619181,40.441417 50.4923172,41.5646882 51.2260945,42.3655009 C51.527159,42.7013609 52.0874735,43.1020408 53.0335606,43.1020408 Z" id="Shape"></path>
                    </g>
                </g>
            </g>
        </g>
    </g>
</svg>